<svg id="visual" viewBox="0 0 900 600" width="900" height="600" xmlns="http://www.w3.org/2000/svg" xmlns:xlink="http://www.w3.org/1999/xlink" version="1.1"><path d="M0 61L13.7 58C27.3 55 54.7 49 82 45C109.3 41 136.7 39 163.8 41C191 43 218 49 245.2 54C272.3 59 299.7 63 327 62C354.3 61 381.7 55 409 56C436.3 57 463.7 65 491 74C518.3 83 545.7 93 573 92C600.3 91 627.7 79 654.8 68C682 57 709 47 736.2 43C763.3 39 790.7 41 818 45C845.3 49 872.7 55 886.3 58L900 61L900 0L886.3 0C872.7 0 845.3 0 818 0C790.7 0 763.3 0 736.2 0C709 0 682 0 654.8 0C627.7 0 600.3 0 573 0C545.7 0 518.3 0 491 0C463.7 0 436.3 0 409 0C381.7 0 354.3 0 327 0C299.7 0 272.3 0 245.2 0C218 0 191 0 163.8 0C136.7 0 109.3 0 82 0C54.7 0 27.3 0 13.7 0L0 0Z" fill="#ba55d3"></path><path d="M0 151L13.7 172C27.3 193 54.7 235 82 239C109.3 243 136.7 209 163.8 213C191 217 218 259 245.2 266C272.3 273 299.7 245 327 217C354.3 189 381.7 161 409 175C436.3 189 463.7 245 491 273C518.3 301 545.7 301 573 289C600.3 277 627.7 253 654.8 237C682 221 709 213 736.2 202C763.3 191 790.7 177 818 200C845.3 223 872.7 283 886.3 313L900 343L900 59L886.3 56C872.7 53 845.3 47 818 43C790.7 39 763.3 37 736.2 41C709 45 682 55 654.8 66C627.7 77 600.3 89 573 90C545.7 91 518.3 81 491 72C463.7 63 436.3 55 409 54C381.7 53 354.3 59 327 60C299.7 61 272.3 57 245.2 52C218 47 191 41 163.8 39C136.7 37 109.3 39 82 43C54.7 47 27.3 53 13.7 56L0 59Z" fill="#b646dd"></path><path d="M0 223L13.7 245C27.3 267 54.7 311 82 321C109.3 331 136.7 307 163.8 305C191 303 218 323 245.2 327C272.3 331 299.7 319 327 304C354.3 289 381.7 271 409 290C436.3 309 463.7 365 491 385C518.3 405 545.7 389 573 373C600.3 357 627.7 341 654.8 320C682 299 709 273 736.2 266C763.3 259 790.7 271 818 295C845.3 319 872.7 355 886.3 373L900 391L900 341L886.3 311C872.7 281 845.3 221 818 198C790.7 175 763.3 189 736.2 200C709 211 682 219 654.8 235C627.7 251 600.3 275 573 287C545.7 299 518.3 299 491 271C463.7 243 436.3 187 409 173C381.7 159 354.3 187 327 215C299.7 243 272.3 271 245.2 264C218 257 191 215 163.8 211C136.7 207 109.3 241 82 237C54.7 233 27.3 191 13.7 170L0 149Z" fill="#af36e7"></path><path d="M0 451L13.7 457C27.3 463 54.7 475 82 480C109.3 485 136.7 483 163.8 478C191 473 218 465 245.2 462C272.3 459 299.7 461 327 468C354.3 475 381.7 487 409 497C436.3 507 463.7 515 491 514C518.3 513 545.7 503 573 490C600.3 477 627.7 461 654.8 463C682 465 709 485 736.2 490C763.3 495 790.7 485 818 490C845.3 495 872.7 515 886.3 525L900 535L900 389L886.3 371C872.7 353 845.3 317 818 293C790.7 269 763.3 257 736.2 264C709 271 682 297 654.8 318C627.7 339 600.3 355 573 371C545.7 387 518.3 403 491 383C463.7 363 436.3 307 409 288C381.7 269 354.3 287 327 302C299.7 317 272.3 329 245.2 325C218 321 191 301 163.8 303C136.7 305 109.3 329 82 319C54.7 309 27.3 265 13.7 243L0 221Z" fill="#a622f3"></path><path d="M0 601L13.7 601C27.3 601 54.7 601 82 601C109.3 601 136.7 601 163.8 601C191 601 218 601 245.2 601C272.3 601 299.7 601 327 601C354.3 601 381.7 601 409 601C436.3 601 463.7 601 491 601C518.3 601 545.7 601 573 601C600.3 601 627.7 601 654.8 601C682 601 709 601 736.2 601C763.3 601 790.7 601 818 601C845.3 601 872.7 601 886.3 601L900 601L900 533L886.3 523C872.7 513 845.3 493 818 488C790.7 483 763.3 493 736.2 488C709 483 682 463 654.8 461C627.7 459 600.3 475 573 488C545.7 501 518.3 511 491 512C463.7 513 436.3 505 409 495C381.7 485 354.3 473 327 466C299.7 459 272.3 457 245.2 460C218 463 191 471 163.8 476C136.7 481 109.3 483 82 478C54.7 473 27.3 461 13.7 455L0 449Z" fill="#9900ff"></path></svg>