<svg xmlns="http://www.w3.org/2000/svg" version="1.1" xmlns:xlink="http://www.w3.org/1999/xlink" xmlns:svgjs="http://svgjs.dev/svgjs" width="1440" height="560" preserveAspectRatio="none" viewBox="0 0 1440 560"><g mask="url(&quot;#SvgjsMask1082&quot;)" fill="none"><rect width="1440" height="560" x="0" y="0" fill="rgba(161, 154, 255, 1)"></rect><path d="M0,634.875C120.148,634.603,237.386,591.065,333.652,519.173C426.1,450.132,471.174,341.599,527.526,240.913C589.139,130.827,690.961,27.968,678.851,-97.604C666.675,-223.86,557.726,-316.295,465.401,-403.272C380.386,-483.363,281.227,-543.22,169.544,-577.412C56.875,-611.906,-63.904,-635.739,-176.076,-599.66C-287.034,-563.971,-384.252,-483.647,-440.081,-381.332C-491.472,-287.149,-450.462,-173.158,-466.671,-67.097C-483.084,40.299,-559.565,138.669,-535.752,244.67C-510.284,358.038,-428.547,452.279,-334.624,520.686C-237.388,591.506,-120.293,635.147,0,634.875" fill="#7f75ff"></path><path d="M1440 893.377C1527.385 892.831 1617.665 998.075 1690.559 949.877 1763.814 901.441 1717.723 781.587 1738.22 696.192 1753.805 631.259 1791.938 575.377 1796.44 508.752 1801.799 429.448 1815.078 339.995 1766.5439999999999 277.048 1717.758 213.77300000000002 1628.424 198.476 1549.203 188.089 1477.925 178.74400000000003 1408.936 199.13 1340.517 221.19299999999998 1273.783 242.71300000000002 1212.72 272.295 1156.819 314.622 1088.5819999999999 366.28999999999996 1000.656 410.76599999999996 980.341 493.911 959.8820000000001 577.643 1018.327 657.815 1053.767 736.387 1089.374 815.331 1107.191 920.412 1187.42 953.0219999999999 1269.218 986.27 1351.705 893.929 1440 893.377" fill="#c3bfff"></path></g><defs><mask id="SvgjsMask1082"><rect width="1440" height="560" fill="#ffffff"></rect></mask></defs></svg>