<svg id="visual" viewBox="0 0 900 600" width="900" height="600" xmlns="http://www.w3.org/2000/svg" xmlns:xlink="http://www.w3.org/1999/xlink" version="1.1"><path d="M0 31L15 31C30 31 60 31 90 33C120 35 150 39 180 40C210 41 240 39 270 37C300 35 330 33 360 34C390 35 420 39 450 41C480 43 510 43 540 43C570 43 600 43 630 41C660 39 690 35 720 34C750 33 780 35 810 35C840 35 870 33 885 32L900 31L900 0L885 0C870 0 840 0 810 0C780 0 750 0 720 0C690 0 660 0 630 0C600 0 570 0 540 0C510 0 480 0 450 0C420 0 390 0 360 0C330 0 300 0 270 0C240 0 210 0 180 0C150 0 120 0 90 0C60 0 30 0 15 0L0 0Z" fill="#6198ff"></path><path d="M0 151L15 158C30 165 60 179 90 178C120 177 150 161 180 160C210 159 240 173 270 171C300 169 330 151 360 148C390 145 420 157 450 172C480 187 510 205 540 201C570 197 600 171 630 162C660 153 690 161 720 165C750 169 780 169 810 169C840 169 870 169 885 169L900 169L900 29L885 30C870 31 840 33 810 33C780 33 750 31 720 32C690 33 660 37 630 39C600 41 570 41 540 41C510 41 480 41 450 39C420 37 390 33 360 32C330 31 300 33 270 35C240 37 210 39 180 38C150 37 120 33 90 31C60 29 30 29 15 29L0 29Z" fill="#3179ff"></path><path d="M0 175L15 185C30 195 60 215 90 217C120 219 150 203 180 199C210 195 240 203 270 201C300 199 330 187 360 184C390 181 420 187 450 202C480 217 510 241 540 240C570 239 600 213 630 203C660 193 690 199 720 200C750 201 780 197 810 196C840 195 870 197 885 198L900 199L900 167L885 167C870 167 840 167 810 167C780 167 750 167 720 163C690 159 660 151 630 160C600 169 570 195 540 199C510 203 480 185 450 170C420 155 390 143 360 146C330 149 300 167 270 169C240 171 210 157 180 158C150 159 120 175 90 176C60 177 30 163 15 156L0 149Z" fill="#005fee"></path><path d="M0 217L15 225C30 233 60 249 90 249C120 249 150 233 180 229C210 225 240 233 270 232C300 231 330 221 360 220C390 219 420 227 450 240C480 253 510 271 540 269C570 267 600 245 630 235C660 225 690 227 720 227C750 227 780 225 810 227C840 229 870 235 885 238L900 241L900 197L885 196C870 195 840 193 810 194C780 195 750 199 720 198C690 197 660 191 630 201C600 211 570 237 540 238C510 239 480 215 450 200C420 185 390 179 360 182C330 185 300 197 270 199C240 201 210 193 180 197C150 201 120 217 90 215C60 213 30 193 15 183L0 173Z" fill="#004fc3"></path><path d="M0 283L15 294C30 305 60 327 90 328C120 329 150 309 180 309C210 309 240 329 270 332C300 335 330 321 360 311C390 301 420 295 450 301C480 307 510 325 540 327C570 329 600 315 630 310C660 305 690 309 720 310C750 311 780 309 810 307C840 305 870 303 885 302L900 301L900 239L885 236C870 233 840 227 810 225C780 223 750 225 720 225C690 225 660 223 630 233C600 243 570 265 540 267C510 269 480 251 450 238C420 225 390 217 360 218C330 219 300 229 270 230C240 231 210 223 180 227C150 231 120 247 90 247C60 247 30 231 15 223L0 215Z" fill="#004cbb"></path><path d="M0 319L15 332C30 345 60 371 90 373C120 375 150 353 180 353C210 353 240 375 270 378C300 381 330 365 360 354C390 343 420 337 450 342C480 347 510 363 540 364C570 365 600 351 630 347C660 343 690 349 720 353C750 357 780 359 810 356C840 353 870 345 885 341L900 337L900 299L885 300C870 301 840 303 810 305C780 307 750 309 720 308C690 307 660 303 630 308C600 313 570 327 540 325C510 323 480 305 450 299C420 293 390 299 360 309C330 319 300 333 270 330C240 327 210 307 180 307C150 307 120 327 90 326C60 325 30 303 15 292L0 281Z" fill="#004fc3"></path><path d="M0 397L15 406C30 415 60 433 90 433C120 433 150 415 180 414C210 413 240 429 270 434C300 439 330 433 360 426C390 419 420 411 450 412C480 413 510 423 540 421C570 419 600 405 630 400C660 395 690 399 720 401C750 403 780 403 810 402C840 401 870 399 885 398L900 397L900 335L885 339C870 343 840 351 810 354C780 357 750 355 720 351C690 347 660 341 630 345C600 349 570 363 540 362C510 361 480 345 450 340C420 335 390 341 360 352C330 363 300 379 270 376C240 373 210 351 180 351C150 351 120 373 90 371C60 369 30 343 15 330L0 317Z" fill="#005fee"></path><path d="M0 541L15 545C30 549 60 557 90 556C120 555 150 545 180 544C210 543 240 551 270 556C300 561 330 563 360 563C390 563 420 561 450 557C480 553 510 547 540 548C570 549 600 557 630 557C660 557 690 549 720 547C750 545 780 549 810 553C840 557 870 561 885 563L900 565L900 395L885 396C870 397 840 399 810 400C780 401 750 401 720 399C690 397 660 393 630 398C600 403 570 417 540 419C510 421 480 411 450 410C420 409 390 417 360 424C330 431 300 437 270 432C240 427 210 411 180 412C150 413 120 431 90 431C60 431 30 413 15 404L0 395Z" fill="#3179ff"></path><path d="M0 601L15 601C30 601 60 601 90 601C120 601 150 601 180 601C210 601 240 601 270 601C300 601 330 601 360 601C390 601 420 601 450 601C480 601 510 601 540 601C570 601 600 601 630 601C660 601 690 601 720 601C750 601 780 601 810 601C840 601 870 601 885 601L900 601L900 563L885 561C870 559 840 555 810 551C780 547 750 543 720 545C690 547 660 555 630 555C600 555 570 547 540 546C510 545 480 551 450 555C420 559 390 561 360 561C330 561 300 559 270 554C240 549 210 541 180 542C150 543 120 553 90 554C60 555 30 547 15 543L0 539Z" fill="#6198ff"></path></svg>